<?xml version="1.0"?>
<svg xmlns="http://www.w3.org/2000/svg" xmlns:xlink="http://www.w3.org/1999/xlink" xmlns:svgjs="http://svgjs.com/svgjs" version="1.1" width="512" height="512" x="0" y="0" viewBox="0 0 60 54" style="enable-background:new 0 0 512 512" xml:space="preserve" class=""><g><g xmlns="http://www.w3.org/2000/svg" id="Page-1" fill="none" fill-rule="evenodd"><g id="016---Rover" fill="rgb(0,0,0)" fill-rule="nonzero"><path id="Shape" d="m5 54c3.317 0 5-.631 5-1.875v-5.125h1c2.209139 0 4-1.790861 4-4v-2.026c.8603889.6618067 1.9145307 1.0223232 3 1.026h24c1.0854693-.0036768 2.1396111-.3641933 3-1.026v2.026c0 2.209139 1.790861 4 4 4h1v5.125c0 1.244 1.683 1.875 5 1.875s5-.631 5-1.875v-12.25c0-1.244-1.683-1.875-5-1.875s-5 .631-5 1.875v5.125h-1c-1.1045695 0-2-.8954305-2-2v-4c0-1.1045695.8954305-2 2-2h3.818c1.0539655-.0009646 1.9565951-.7551546 2.1448966-1.7921631s-.3915541-2.0603903-1.3778966-2.4318369l-6.585-2.469v-5.307c0-1.6568542-1.3431458-3-3-3h-1v-2.181c.4176201-.1422975.7965477-.3795123 1.107-.693.5752473-.5571583.8978456-1.3251808.893-2.126 0-1.6568542-1.3431458-3-3-3h-2.163c-.4337515-1.4819452-1.7928815-2.5002912-3.337-2.5002912s-2.9032485 1.018346-3.337 2.5002912h-2.163c-1.6529917.0092882-2.9907118 1.3470083-3 3 .0034648 1.2673587.8045193 2.3952435 2 2.816v2.184h-5v-10h5c1.6568542 0 3-1.3431458 3-3v-6c0-1.65685425-1.3431458-3-3-3h-16c-1.6568542 0-3 1.34314575-3 3v6c0 1.6568542 1.3431458 3 3 3h5v10h-3c-1.6568542 0-3 1.3431458-3 3v5.307l-6.585 2.469c-.9863425.3714466-1.56619812 1.3948284-1.37789662 2.4318369s1.09093116 1.7911985 2.14489662 1.7921631h3.818c1.1045695 0 2 .8954305 2 2v4c0 1.1045695-.8954305 2-2 2h-1v-5.125c0-1.244-1.683-1.875-5-1.875s-5 .631-5 1.875v12.25c0 1.244 1.683 1.875 5 1.875zm53-6.132c-1.996128.1759995-4.003872.1759995-6 0v-3.736c1.996128-.1759995 4.003872-.1759995 6 0zm-3 4.132c-1.0105676.0292408-2.0202796-.0825006-3-.332v-1.778c.719.073 1.684.11 3 .11s2.281-.037 3-.11v1.778c-.9797204.2494994-1.9894324.3612408-3 .332zm0-12c1.0105676-.0292408 2.0202796.0825006 3 .332v1.778c-.719-.073-1.684-.11-3-.11s-2.281.037-3 .11v-1.778c.9797204-.2494994 1.9894324-.3612408 3-.332zm-2.118-5.351c.0828014.0302499.1317672.1157533.1159543.2024774-.015813.0867242-.0918051.1494431-.1799543.1485226h-3.818c-.7042532.0041446-1.3946535.1960759-2 .556v-3.113zm-16.882-6.649c.5522847 0 1 .4477153 1 1s-.4477153 1-1 1h-4.787l-5.33-2zm-16 0h.187l16.163 6.066c.2482118.0910689.4497998.2774547.5600113.5177796s.1199267.5147024.0269887.7622204v.007c-.0909008.2483933-.2777893.4498489-.5186746.5591029s-.515566.1171439-.7623254.0218971l-16-6c-.4481831-.1713162-.7115214-.6368111-.6274966-1.1092062.0840248-.4723952.4917277-.8185321.9714966-.8247938zm16-2h-4v-6h9v8c0 1.1045695-.8954305 2-2 2h-.182c.1177557-.3203777.1793263-.6586774.182-1 0-1.6568542-1.3431458-3-3-3zm7-9c.0003954.2693445-.110308.526929-.306.712-.1823963.1865985-.4330776.2906276-.694.288h-2v-2h2c.5522847 0 1 .4477153 1 1zm-6.5-3.5c.8284271 0 1.5.6715729 1.5 1.5v3h-3v-3c0-.8284271.6715729-1.5 1.5-1.5zm-6.194 2.788c.1823963-.1865985.4330776-.2906276.694-.288h2v2h-2c-.5522847 0-1-.4477153-1-1-.0003954-.2693445.110308-.526929.306-.712zm-17.306-7.288v-6c0-.55228475.4477153-1 1-1h16c.5522847 0 1 .44771525 1 1v6c0 .55228475-.4477153 1-1 1h-16c-.5522847 0-1-.44771525-1-1zm8 3h2v10h-2zm-6 13c0-.5522847.4477153-1 1-1h14v2h-10c-1.4480728.0032031-2.6871821 1.040332-2.9453149 2.4652153s.5383946 2.8307895 1.8933149 3.3417847l15.99 5.993c.3383419.1326184.6985957.2004628 1.062.2 1.2494217-.0018751 2.3668704-.7779143 2.805-1.948.2808759-.7440817.2537284-1.5694065-.0754378-2.293422s-.9332238-1.2870541-1.6785622-1.564578l-.515-.194h2.464c2.209139 0 4-1.790861 4-4v-4h1c.5522847 0 1 .4477153 1 1v12c0 1.6568542-1.3431458 3-3 3h-24c-1.6568542 0-3-1.3431458-3-3zm-4 10h-3.818c-.08814918.0009205-.16414131-.0617984-.17995426-.1485226-.01581295-.0867241.03315289-.1722275.11595426-.2024774l5.882-2.206v3.113c-.6053465-.3599241-1.2957468-.5518554-2-.556zm-6 17c-1.01056762.0292408-2.02027963-.0825006-3-.332v-1.778c.719.073 1.684.11 3 .11s2.281-.037 3-.11v1.778c-.97972037.2494994-1.98943238.3612408-3 .332zm-3-7.868c.99698853-.096646 1.99837594-.1407071 3-.132 1.00162406-.0087071 2.00301147.035354 3 .132v3.736c-.99698853.096646-1.99837594.1407071-3 .132-1.00162406.0087071-2.00301147-.035354-3-.132zm3-4.132c1.01056762-.0292408 2.02027963.0825006 3 .332v1.778c-.719-.073-1.684-.11-3-.11s-2.281.037-3 .11v-1.778c.97972037-.2494994 1.98943238-.3612408 3-.332z" fill="#ffffff" data-original="#000000" style=""/><path id="Shape" d="m26 9c1.6568542 0 3-1.34314575 3-3s-1.3431458-3-3-3-3 1.34314575-3 3 1.3431458 3 3 3zm0-4c.5522847 0 1 .44771525 1 1s-.4477153 1-1 1-1-.44771525-1-1 .4477153-1 1-1z" fill="#ffffff" data-original="#000000" style=""/><circle id="Oval" cx="42" cy="37" r="1" fill="#ffffff" data-original="#000000" style=""/><circle id="Oval" cx="22" cy="37" r="1" fill="#ffffff" data-original="#000000" style=""/><circle id="Oval" cx="18" cy="37" r="1" fill="#ffffff" data-original="#000000" style=""/></g></g></g></svg>
